<svg version="1" xmlns="http://www.w3.org/2000/svg" width="682.667" height="682.667" viewBox="0 0 512.000000 512.000000"><path d="M0 256v256h512V0H0v256zm248-124.7c0 .7-6.5 10.7-14.5 22.2-7.9 11.6-22.3 32.7-32 47-9.7 14.3-21.7 31.8-26.6 39-5 7.1-9.5 13.7-10 14.6-.9 1.8 11.2 20.9 33.1 51.9 6.4 9.1 17.2 24.8 24 35 6.8 10.2 15.5 22.8 19.2 28.1 3.7 5.3 6.8 10.1 6.8 10.6 0 1.9-50.4 3.2-64.6 1.7l-6-.6-6.7-10.8c-3.6-5.9-14.2-21.5-23.4-34.6-9.2-13.1-19.6-28.6-23.2-34.4-3.5-5.8-8.3-13-10.6-16-2.3-3-6.6-9.3-9.6-14-2.9-4.7-6.6-10.2-8.1-12.2l-2.9-3.7 2.9-3.3c1.6-1.8 3.8-4.9 4.8-6.8 1.1-1.9 3.1-5.1 4.6-7 1.5-1.9 4.7-6.3 7-9.7 9.1-13.3 31.1-45.7 44.9-66.3 8-11.8 16.2-23.9 18.3-26.8l3.8-5.2h34.4c27 0 34.4.3 34.4 1.3zm94 8.7c5.4 7.7 46.6 68.4 59.7 87.8 1.7 2.6 4.4 6.5 6 8.6 1.5 2.1 4.1 6 5.6 8.5 1.6 2.5 4 5.8 5.3 7.2l2.5 2.6-7.7 11.9c-4.2 6.6-9.1 13.7-10.9 15.9-1.8 2.2-7.4 10.5-12.4 18.5-5.1 8-16.3 24.6-25 37-8.7 12.4-18.6 27.1-22 32.6l-6.3 10.1-6 .7c-13.2 1.3-64.8.2-64.8-1.4 0-.4 2-3.6 4.5-7.1 2.4-3.5 8.3-12.2 13.1-19.4 4.8-7.1 16.4-24 25.8-37.5 9.4-13.5 19.3-28 22.1-32.3 2.7-4.3 8-12.1 11.8-17.4 3.7-5.3 6.7-10 6.7-10.5s-7.4-11.6-16.4-24.6c-9-13-18.5-27.1-21.1-31.2-2.7-4.1-13.9-20.6-25-36.5-11.1-16-20.5-30-20.9-31.3l-.7-2.2 34.7.2 34.8.3 6.6 9.5z"/><path d="M139 202c0 1.7.9 3.9 2 5s2 3.3 2 5c0 3.7.6 3.7 5-.1l3.5-3-5.3-5c-2.9-2.7-5.8-4.9-6.3-4.9s-.9 1.3-.9 3zM158.1 201.4c-2.3 2.4-2.3 2.4-.2 3.1 1.1.3 2.9 1.7 4 3.1 2.4 3 3.1 3 3.1-.1 0-1.7.6-2.5 1.8-2.5 1.6-.1 1.6-.1 0-1.4-1-.7-1.8-2.1-1.8-3 0-2.5-4.3-2-6.9.8zM163.1 211.9c-.7.4-2.3.6-3.5.4-1.3-.3-2.7 0-3 .6-.4.6-1.6 1.1-2.7 1.1-2.3 0-15.4 6.4-16.4 8.1-.4.6.2 2 1.3 3.1 2 2 2.1 2 3.8.3 1.5-1.4 2.8-1.6 7.8-1 3.4.3 6.2.8 6.4 1 .2.1-.3 1.9-1.2 3.8l-1.4 3.6 2.9.6c3.6.8 4.7 2.5 2.5 3.7-2 1.1-2.1 4.7-.1 5.4.8.4 2.6.3 4 0 3-.8 7.6-9.8 7.5-14.8 0-1.8.2-5.8.6-8.8l.7-5.5-2.3 2.8c-2.2 2.7-2.3 2.8-3.6.8-.8-1-1.1-2.6-.8-3.4.7-1.8-.7-2.9-2.5-1.8zM124 227.3c0 1.2-.9 3-2 4-1.1.9-2 2.8-2 4.2 0 2.3.2 2.4 2.1 1.5 1.6-.9 2.4-.8 3.9.5 1.3 1.1 2 1.3 2.5.5.4-.6 1.8-1.5 3.1-2 2.4-1 2.4-1 .7-3.7-4.3-7-8.3-9.4-8.3-5zM115.6 233.5c-.3.8-.2 1.5.3 1.5s1.4-.7 2.1-1.5c1-1.2 1-1.5-.3-1.5-.8 0-1.7.7-2.1 1.5zM134.7 243.6c-.3.3-.3 1.2 0 2s-.2 1.7-1.1 2c-2.9 1.1-1.7 2.4 1.7 1.7 4.3-.8 5.1-1.7 3.8-4.2-1.1-2-3.1-2.7-4.4-1.5zM145.7 244.7c-1.3 1.2-.7 5.4.7 5.9 3.1 1.2 4.3.1 3.4-3.4-.8-3-2.6-4.1-4.1-2.5zM110.7 245.7c-.4.3-.7 2.6-.7 5.1 0 3.9-.2 4.3-1.5 3.2-1.2-1-1.9-1-2.8-.1-.9.9-.7 2 .8 4.7 2.2 4.2 5.1 4.3 4.8.1-.1-1.7.3-2.7 1.2-2.7 1.7 0 4.5-3.8 4.5-6.2 0-3.1-4.4-6-6.3-4.1zM141.2 252.2c.3.7 1.3 1.5 2.4 1.7 1.6.3 1.7.1.5-1.3-1.6-1.9-3.4-2.1-2.9-.4zM151 253.9c0 1-1 2.9-2.2 4.3-1.3 1.4-3.1 3.5-4 4.7-1.1 1.2-2.9 2.1-4.6 2.1-5.5 0-9.5 6.9-7.3 12.5.6 1.4.3 2.4-.8 3.2-2.5 1.9-4.8 1.5-6.9-1.1l-1.9-2.4-1.7 2.9c-1.7 2.9-1.7 3 1.6 8.9 2.3 4.3 4.1 6.2 6.3 7 2.5.9 3.2.8 4.2-.7.7-.9 1.3-2.7 1.3-3.9 0-1.4.8-2.5 2-2.9 1.1-.3 2.5-1.5 3.1-2.6 1-1.9 1.2-1.8 5 1.8 2.1 2.1 3.9 4.4 3.9 5 0 2 2 1.5 2.1-.5.3-4 .5-4.5 2.1-5.5 1.3-.9 2.2-.7 3.8.8l2.1 1.9-.3-4.4-.3-4.5-5.4-.2c-6-.2-5.8-.1-6.3-2.8-.2-1.6.2-2 2.3-1.7 2.3.2 2.5-.1 2.1-2.8-.3-2.3-.1-2.9 1-2.5 1 .4 1.8-.6 2.6-3.3.7-2.2 1.9-4.5 2.7-5.2 1.3-1.1 1.4-1.5.2-2.9-.8-.9-1.7-2.8-2.1-4.4-.8-3.2-4.6-3.9-4.6-.8z"/><path d="M144.1 258.6c0 1.1.3 1.4.6.6.3-.7.2-1.6-.1-1.9-.3-.4-.6.2-.5 1.3zM126.3 264.7c-.7.2-1.3 1.8-1.3 3.4 0 3.6 3.4 4.1 4.4.6 1.2-4.5.4-5.5-3.1-4zM117 278.8c0 .5.7 1.6 1.6 2.3 1.4 1.2 1.6 1.1 1.3-.5-.4-2-2.9-3.5-2.9-1.8zM165 280.5c-1.6 1.9 0 1.9 2.6 0 1.6-1.2 1.6-1.4.3-1.5-.9 0-2.2.7-2.9 1.5zM145.5 294c-.3.6.1.7.9.4 1.8-.7 2.1-1.4.7-1.4-.6 0-1.3.4-1.6 1zM156 303.2c0 1.4.8 1.8 3.4 1.8 1.9 0 4.1.3 5 .6 1.1.4 1.6 0 1.6-1.4 0-1.7-.8-2.1-5-2.4-4.2-.2-5 0-5 1.4zM138.7 305.1c.7.7 1.5 1 1.8.7.3-.3-.2-.9-1.2-1.2-1.4-.6-1.5-.5-.6.5zM144.6 312.9c-.3.5.3 1.1 1.4 1.4 1.3.3 2 0 2-.9 0-1.5-2.6-1.9-3.4-.5zM185 339.4c0 .2.7.9 1.5 1.6 1.2 1 1.5 1 1.5-.4 0-.9-.7-1.6-1.5-1.6s-1.5.2-1.5.4zM212 370.6c0 .8.9 1.4 2 1.4s2-.4 2-.9-.9-1.1-2-1.4c-1.3-.3-2 0-2 .9zM354.5 193c-.3.5-.1 1 .4 1 .6 0 1.1-.5 1.1-1 0-.6-.2-1-.4-1-.3 0-.8.4-1.1 1zM349 201c0 1-.8 2.4-1.7 2.9-1.7 1-1.7 1 0 1.1 1.1 0 1.7.8 1.7 2.5 0 2.9 1.5 3.3 2.9.7.5-1 2.1-2.4 3.5-3.2l2.6-1.3-2.2-2.4c-2.7-2.9-6.8-3.1-6.8-.3zM368.2 203.6c-2.8 2.5-5.2 4.9-5.2 5.3 0 .4 1.7 2 3.7 3.4 3.2 2.3 3.9 2.4 4.6 1.1.5-.8.6-2 .4-2.7-.2-.7.3-2.1 1.3-3.2 2.2-2.6 3.4-8.5 1.7-8.5-.7 0-3.6 2.1-6.5 4.6zM349 213.4c0 1.2-.6 3-1.3 4-1.3 1.7-1.5 1.7-3.6-1l-2.3-2.9.6 5c.4 2.7.8 7 .9 9.5.5 8.9 6.3 16.5 11.2 14.6 2-.7 1.9-4.3-.1-5.4-2.2-1.2-1.1-2.9 2.6-3.7 3.4-.7 3.5-1 1.5-4.5-.8-1.4-1.4-2.8-1.5-3.2 0-.3 2.9-1 6.5-1.3 5.4-.6 6.9-.4 8.4.9 1.6 1.5 1.9 1.5 3.5-.3 1-1.1 1.5-2.5 1.1-3.1-.9-1.5-14.1-8-16.3-8-1 0-2.2-.4-2.7-.9-.6-.4-2.7-1.1-4.7-1.4-3.4-.5-3.8-.4-3.8 1.7zM384 229.2c-3.3 4.5-3.8 6.8-1.6 6.8.8 0 2.2.7 3.1 1.6 1.5 1.5 1.7 1.5 2.9-.1 1-1.4 1.6-1.5 3.4-.6 2 1.1 2.2.9 2.2-1.6 0-1.7-.8-3.3-2-4.1-1.1-.7-2-2.3-2-3.7 0-3.8-2.6-3.1-6 1.7zM396.3 233.7c.9.9 1.9 1.4 2.3 1.1 1-1-.6-2.8-2.4-2.8-1.5 0-1.5.1.1 1.7zM375.5 244.1c-.4.5-.8 2-.9 3.2-.2 1.9.2 2.2 3.6 2.2 3.7.1 4.8-.7 2.7-2-.6-.4-.8-1.3-.5-2 .8-2.1-3.7-3.4-4.9-1.4zM364.4 247.9c-.5 3.1-1.1 4.1-2.8 4.3-1.1.2-2.2 1.2-2.4 2.3-.2 1.1-1.3 2.9-2.3 4.1-1.9 2-1.9 2.1.1 3.9 1.1 1 2.2 3.3 2.6 5.2.4 2.3 1.1 3.3 2.3 3.1 1.2-.2 1.5.4 1.3 2.6-.4 2.6-.2 2.8 2.2 2.2 2.2-.5 2.6-.3 2.6 1.4 0 2.5-1.6 3.2-7.8 3.4l-4.7.1-.3 4.2c-.3 4.6.3 5.3 2.4 2.5 1.8-2.4 4.8-.4 5.2 3.7.4 3.8 1.9 4 3.2.5.6-1.4 1.9-2.8 3-3.1 1.1-.3 2-1.4 2-2.4 0-2.5 1.6-2.4 3 0 .5 1.1 1.9 2.2 3 2.6 1.2.4 2.4 2.1 3 4.5 1 3.6 3 6.4 3 4.2 0-.6 1.1-1.3 2.4-1.6 1.5-.4 3.4-2.3 5-5.3 3.6-6.3 3.9-8.4 1.8-11.1l-1.8-2.3-1.4 2.5c-1.4 2.7-4.8 3.4-6.7 1.5-.7-.7-1-3-.6-5.8.5-4.1.2-4.9-2.2-7.4-1.5-1.5-3.9-2.7-5.2-2.7-2.4 0-6.8-3.8-10.1-8.8-1.1-1.8-1.2-2.5-.2-3.7.7-.8 1.8-1.5 2.6-1.5 2 0 3.4-3.2 2.3-5.3-1.7-3-3.8-2-4.5 2.2zM398.6 246.6c-.9.8-1.6 2.3-1.6 3.2 0 2.4 2.8 6.2 4.6 6.2 1 0 1.4.9 1.2 2.7-.5 4.2 2.5 4.1 5.1-.2 1.1-2 2.1-3.8 2.1-4 0-1.1-3.5-1.3-4.8-.3-1.3 1.1-1.4.8-.8-1.9 1.3-5.7-2.3-9.2-5.8-5.7z"/><path d="M370.4 252.5c-1.9 1.4-1.8 1.4.4 1.5 1.3 0 2.2-.6 2.2-1.5 0-1.9-.1-1.9-2.6 0zM369.1 258.6c0 1.1.3 1.4.6.6.3-.7.2-1.6-.1-1.9-.3-.4-.6.2-.5 1.3zM384.6 266.7c.9 3.8 1.3 4.3 3 4.3 2 0 1.9-5.6-.2-6.4-2.8-1.1-3.4-.6-2.8 2.1zM395 279.6c0 .8.5 1.2 1 .9.6-.3 1-1 1-1.6 0-.5-.4-.9-1-.9-.5 0-1 .7-1 1.6zM347 280.5c3.3 1.9 5 1.8 2.6 0-1.1-.8-2.7-1.5-3.5-1.5-1 .1-.7.6.9 1.5zM367.7 294.1c.7.7 1.5 1 1.8.7.3-.3-.2-.9-1.2-1.2-1.4-.6-1.5-.5-.6.5zM357 297c0 .5.5 1 1.1 1 .5 0 .7-.5.4-1-.3-.6-.8-1-1.1-1-.2 0-.4.4-.4 1zM348.3 303.5c-.8 2.1-.6 2.2 5.5 1.7 3.6-.3 5.2-.8 5.2-1.8 0-2.1-9.9-2-10.7.1zM374 305c-1.3.8-1.2 1 .3 1 .9 0 1.7-.5 1.7-1 0-1.2-.1-1.2-2 0zM366.5 313.1c-.4.6-.5 1.2-.2 1.5.7.7 3.7-.7 3.7-1.7 0-1.3-2.7-1.1-3.5.2zM362.8 314.7c.7.3 1.6.2 1.9-.1.4-.3-.2-.6-1.3-.5-1.1 0-1.4.3-.6.6zM326.7 339.7c-1 .9-.9 2.3.2 2.3.5 0 1.1-.7 1.5-1.5.5-1.5-.5-2-1.7-.8zM299.4 370.5c-1.9 1.4-1.8 1.4.4 1.5 1.3 0 2.2-.6 2.2-1.5 0-1.9-.1-1.9-2.6 0z"/></svg>